<?xml version="1.0" encoding="UTF-8"?> <svg xmlns="http://www.w3.org/2000/svg" xmlns:xlink="http://www.w3.org/1999/xlink" version="1.1" id="Слой_1" x="0px" y="0px" viewBox="0 0 201 66" style="enable-background:new 0 0 201 66;" xml:space="preserve"> <style type="text/css"> .st0{fill:#FFFFFF;} </style> <path d="M0,64.6V12.3h17.7c4.1,0,7.5,0.7,10.1,2.2c2.6,1.5,4.6,3.4,5.8,5.9c1.3,2.5,1.9,5.3,1.9,8.4c0,3.1-0.6,5.9-1.9,8.4 c-1.2,2.5-3.2,4.5-5.8,6c-2.6,1.5-5.9,2.2-10,2.2H5.1v-5.6h12.5c2.8,0,5.1-0.5,6.8-1.5c1.7-1,2.9-2.3,3.7-3.9 c0.8-1.7,1.2-3.5,1.2-5.6c0-2.1-0.4-4-1.2-5.6c-0.8-1.7-2-2.9-3.7-3.9c-1.7-1-4-1.4-6.8-1.4H6.4v46.7H0z"></path> <path d="M37.1,64.6V12.3h17.7c4.1,0,7.4,0.7,10.1,2.1c2.6,1.4,4.6,3.3,5.8,5.7c1.3,2.4,1.9,5.2,1.9,8.2c0,3.1-0.6,5.8-1.9,8.2 c-1.3,2.4-3.2,4.3-5.8,5.6c-2.6,1.3-5.9,2-10,2H40.5v-5.7h14.1c2.8,0,5-0.4,6.7-1.2c1.7-0.8,3-2,3.7-3.5c0.8-1.5,1.2-3.3,1.2-5.4 c0-2.1-0.4-3.9-1.2-5.5c-0.8-1.6-2-2.8-3.8-3.6c-1.7-0.9-4-1.3-6.8-1.3H43.4v46.7H37.1z M61.7,41.1l12.9,23.5h-7.4L54.5,41.1H61.7z"></path> <path d="M74.4,64.6V12.3h6.3v23.3h27.9V12.3h6.3v52.3h-6.3V41.2H80.7v23.4H74.4z"></path> <path d="M153.7,12.3h6.3v34.6c0,3.6-0.8,6.8-2.5,9.6c-1.7,2.8-4,5-7.1,6.6c-3,1.6-6.6,2.4-10.7,2.4c-4.1,0-7.7-0.8-10.7-2.4 c-3-1.6-5.4-3.8-7.1-6.6c-1.7-2.8-2.5-6-2.5-9.6V12.3h6.3v34.1c0,2.6,0.6,4.8,1.7,6.8c1.1,2,2.7,3.5,4.8,4.7 c2.1,1.1,4.6,1.7,7.5,1.7c2.9,0,5.4-0.6,7.5-1.7c2.1-1.1,3.7-2.7,4.8-4.7c1.1-2,1.7-4.3,1.7-6.8V12.3z"></path> <path d="M163.7,64.6V12.3H182c3.6,0,6.6,0.6,9,1.9c2.4,1.2,4.1,2.9,5.3,5c1.2,2.1,1.7,4.4,1.7,7c0,2.2-0.4,4.1-1.2,5.6 c-0.8,1.5-1.8,2.6-3.1,3.5c-1.3,0.9-2.7,1.5-4.2,1.9v0.5c1.6,0.1,3.2,0.7,4.8,1.7c1.6,1,3,2.5,4.1,4.4c1.1,1.9,1.6,4.2,1.6,7 c0,2.6-0.6,5-1.8,7.1c-1.2,2.1-3.1,3.8-5.6,5c-2.6,1.2-5.9,1.8-10,1.8H163.7z M170,59h12.6c4.1,0,7.1-0.8,8.8-2.4 c1.8-1.6,2.6-3.6,2.6-5.9c0-1.8-0.5-3.4-1.4-4.9c-0.9-1.5-2.2-2.7-3.9-3.6c-1.7-0.9-3.6-1.4-5.9-1.4H170V59z M170,35.3h11.7 c1.9,0,3.6-0.4,5.2-1.1c1.5-0.7,2.8-1.8,3.7-3.2c0.9-1.4,1.4-3,1.4-4.8c0-2.3-0.8-4.2-2.4-5.8c-1.6-1.6-4.1-2.4-7.6-2.4H170V35.3z"></path> <g> <path d="M132.6,9.9c-1.3,0-2.3-0.5-3.2-1.4c-0.9-0.9-1.4-2-1.4-3.2s0.5-2.3,1.4-3.2c0.9-0.9,2-1.4,3.2-1.4c1.3,0,2.3,0.5,3.2,1.4 c0.9,0.9,1.4,2,1.4,3.2c0,0.8-0.2,1.6-0.6,2.3c-0.4,0.7-1,1.3-1.7,1.7C134.2,9.7,133.4,9.9,132.6,9.9z"></path> <path d="M146.8,9.9c-1.3,0-2.3-0.5-3.2-1.4c-0.9-0.9-1.4-2-1.4-3.2s0.5-2.3,1.4-3.2c0.9-0.9,2-1.4,3.2-1.4c1.3,0,2.3,0.5,3.2,1.4 c0.9,0.9,1.4,2,1.4,3.2c0,0.8-0.2,1.6-0.6,2.3c-0.4,0.7-1,1.3-1.7,1.7C148.4,9.7,147.7,9.9,146.8,9.9z"></path> </g> </svg> 