<?xml version="1.0" encoding="UTF-8"?> <svg xmlns="http://www.w3.org/2000/svg" width="409" height="332" viewBox="0 0 409 332" fill="none"><path d="M388.534 1.99967L399.473 175.425L20.3566 199.338L9.41797 25.9121L388.534 1.99967Z" fill="#F4F0E9"></path><path fill-rule="evenodd" clip-rule="evenodd" d="M8.15625 24.8008L389.644 0.738744L400.733 176.536L19.2445 200.598L8.15625 24.8008ZM10.7253 27.7796L21.4667 198.077L398.211 174.314L387.469 4.00463L203.846 112.095L10.7253 27.7796ZM383.645 3.49837L14.3945 26.7885L203.686 109.432L383.645 3.49837Z" fill="#E85F34"></path><path d="M406.896 159.295L375.697 330.241L1.99994 262.038L33.1992 91.0918L406.896 159.295Z" fill="#F4F0E9"></path><path fill-rule="evenodd" clip-rule="evenodd" d="M32.2422 89.71L408.277 158.34L376.651 331.624L0.616235 262.994L32.2422 89.71ZM34.0172 93.2204L3.38077 261.083L374.74 328.86L405.379 160.985L201.111 221.612L34.0172 93.2204ZM401.789 159.571L37.8171 93.1432L201.597 218.989L401.789 159.571Z" fill="#E85F34"></path></svg> 