<?xml version="1.0" encoding="UTF-8"?> <svg xmlns="http://www.w3.org/2000/svg" width="600" height="500" viewBox="0 0 600 500" fill="none"><mask id="mask0_93_145" style="mask-type:alpha" maskUnits="userSpaceOnUse" x="0" y="0" width="600" height="500"><rect width="600" height="500" transform="matrix(1 0 0 -1 0 500)" fill="#D9D9D9"></rect></mask><g mask="url(#mask0_93_145)"><path fill-rule="evenodd" clip-rule="evenodd" d="M1.84957 0H0V1.84957V79.0391V80.8886V80.8896V82.7391V674.149V675.998H1.84957H598.148H599.998V674.149L599.998 82.7391V80.8896L599.998 80.8886V79.0391L599.998 1.84957V0H598.148H1.84957ZM596.299 79.0391V3.69914H3.69914V79.0391H596.299ZM3.69914 82.7391H596.299V672.299H3.69914V82.7391ZM47.5933 658.009H49.4429H551.667H553.517V656.159V628.395H581.275H583.125V626.545V207.918V206.069H581.275H553.517V178.305V176.455H551.667H49.813H47.9634V178.305V206.069H20.205H18.3555V207.918V626.545V628.395H20.205H47.5933V656.159V658.009ZM51.2924 654.31V626.545V624.696H49.4429H22.0546V209.768H49.813H51.6625V207.918V180.154H549.818V207.918V209.768H551.667H579.426V624.696H551.667H549.818V626.545V654.31H51.2924ZM60.3078 116.76L54.9207 114.295L49.5335 116.76L43.9821 118.827L41.915 124.38L39.4511 129.768L41.915 135.156L43.9821 140.709L49.5335 142.776L54.9207 145.241L60.3078 142.776L65.8593 140.709L67.9264 135.156L70.3902 129.768L67.9264 124.38L65.8593 118.827L60.3078 116.76ZM578.241 114.295L583.628 116.76L589.18 118.827L591.247 124.38L593.711 129.768L591.247 135.156L589.18 140.709L583.628 142.776L578.241 145.241L572.854 142.776L567.302 140.709L565.235 135.156L562.771 129.768L565.235 124.38L567.302 118.827L572.854 116.76L578.241 114.295ZM72.7597 129.843L87.5637 140.208L103.108 129.843L87.5637 119.478L72.7597 129.843ZM21.6848 140.208L6.88082 129.843L21.6848 119.478L37.229 129.843L21.6848 140.208ZM530.201 129.843L545.005 140.208L560.549 129.843L545.005 119.478L530.201 129.843ZM85.3516 114.138L67.5561 117.279L70.6965 99.4796L89.0154 95.8151L85.3516 114.138ZM20.974 163.871L38.7696 160.729L42.4334 142.407L24.1144 146.071L20.974 163.871ZM562.09 160.729L544.294 163.871L547.435 146.071L565.754 142.407L562.09 160.729ZM67.5571 142.407L70.6975 160.206L89.0165 163.871L85.3527 145.548L67.5571 142.407ZM24.1155 113.614L20.9751 95.8149L38.7707 98.9559L42.4345 117.279L24.1155 113.614ZM544.295 95.8149L547.436 113.614L565.755 117.279L562.091 98.9559L544.295 95.8149ZM117.226 129.103L97.086 96.0084L100.246 94.0853L120.972 128.141L121.557 129.103L120.972 130.064L100.246 164.12L97.086 162.197L117.226 129.103ZM107.449 96.0084L127.59 129.103L107.449 162.197L110.609 164.12L131.335 130.064L131.92 129.103L131.335 128.141L110.609 94.0853L107.449 96.0084ZM137.953 129.103L117.813 96.0084L120.973 94.0853L141.698 128.141L142.283 129.103L141.698 130.064L120.973 164.12L117.813 162.197L137.953 129.103ZM128.176 96.0084L148.316 129.103L128.176 162.197L131.336 164.12L152.061 130.064L152.647 129.103L152.061 128.141L131.336 94.0853L128.176 96.0084ZM158.676 129.103L138.535 96.0084L141.695 94.0853L162.421 128.141L163.006 129.103L162.421 130.064L141.695 164.12L138.535 162.197L158.676 129.103ZM148.902 96.0084L169.043 129.103L148.902 162.197L152.062 164.12L172.788 130.064L173.373 129.103L172.788 128.141L152.062 94.0853L148.902 96.0084ZM197.855 95.0468L208.958 95.7872V105.131L217.841 105.871V121.207L221.542 115.488L231.534 119.808L228.944 129.389L227.463 155.314L221.542 162.789H185.642L179.72 155.314L178.24 129.389L175.279 119.808L185.642 115.488L189.713 121.985V105.871L197.855 105.131V95.0468ZM203.371 125.653L204.008 125.873L214.741 129.575L215.145 129.714L215.446 130.016L223.218 137.789L220.602 140.405L213.132 132.933L203.44 129.59L194.835 132.9L187.72 140.372L185.041 137.821L192.443 130.048L192.73 129.746L193.119 129.597L202.741 125.895L203.371 125.653ZM206.868 134.219L203.775 132.804L200.682 134.219L197.494 135.406L196.307 138.594L194.893 141.688L196.307 144.782L197.494 147.97L200.682 149.158L203.775 150.572L206.868 149.158L210.056 147.97L211.243 144.782L212.657 141.688L211.243 138.594L210.056 135.406L206.868 134.219ZM204.008 157.874L203.371 158.094L202.741 157.852L193.119 154.15L192.73 154.001L192.443 153.699L185.041 145.926L187.72 143.375L194.835 150.847L203.44 154.157L213.132 150.814L220.602 143.342L223.218 145.958L215.446 153.731L215.145 154.033L214.741 154.172L204.008 157.874ZM236.811 121.33H234.361L235.032 123.686L247.368 166.997L249.032 172.838L250.906 167.061L263.263 128.97L274.095 166.996L275.759 172.838L277.633 167.06L289.994 128.957L300.829 166.996L302.493 172.838L304.367 167.06L316.724 128.97L327.556 166.996L329.22 172.838L331.094 167.06L343.453 128.963L354.286 166.996L355.95 172.838L357.824 167.06L370.182 128.966L381.015 166.997L382.679 172.838L384.553 167.061L398.603 123.75L399.389 121.33H396.844H263.197H236.811ZM356.18 160.142L346.178 125.029H367.571L356.18 160.142ZM340.84 125.029H319.448L329.45 160.142L340.84 125.029ZM302.723 160.142L292.721 125.029H314.114L302.723 160.142ZM287.379 125.029H265.987L275.989 160.142L287.379 125.029ZM249.262 160.142L239.26 125.029H260.653L249.262 160.142ZM382.909 160.142L372.907 125.029H394.3L382.909 160.142ZM233.381 115.405H399.925V111.706H233.381V115.405ZM399.925 105.78H233.381V102.081H399.925V105.78ZM423.618 100.969C423.618 105.06 420.303 108.375 416.214 108.375C412.126 108.375 408.81 105.06 408.81 100.969C408.81 96.8785 412.126 93.5634 416.214 93.5634C420.303 93.5634 423.618 96.8785 423.618 100.969ZM427.317 100.969C427.317 106.602 423.125 111.255 417.691 111.977V117.354C423.125 118.077 427.317 122.73 427.317 128.362C427.317 133.994 423.125 138.647 417.691 139.37V144.747C423.125 145.469 427.317 150.122 427.317 155.755C427.317 161.888 422.346 166.86 416.214 166.86C410.082 166.86 405.111 161.888 405.111 155.755C405.111 150.382 408.925 145.901 413.992 144.872V139.245C408.925 138.215 405.111 133.734 405.111 128.362C405.111 122.99 408.925 118.509 413.992 117.479V111.852C408.925 110.823 405.111 106.341 405.111 100.969C405.111 94.8362 410.082 89.8642 416.214 89.8642C422.346 89.8642 427.317 94.8362 427.317 100.969ZM416.214 135.768C420.303 135.768 423.618 132.453 423.618 128.362C423.618 124.271 420.303 120.956 416.214 120.956C412.126 120.956 408.81 124.271 408.81 128.362C408.81 132.453 412.126 135.768 416.214 135.768ZM423.618 155.755C423.618 159.845 420.303 163.161 416.214 163.161C412.126 163.161 408.81 159.845 408.81 155.755C408.81 151.664 412.126 148.348 416.214 148.348C420.303 148.348 423.618 151.664 423.618 155.755ZM514.23 119.023C517.036 119.585 519.849 119.271 522.26 117.975C526.612 115.635 528.977 110.481 527.981 103.306L524.317 103.815C525.171 109.966 523.096 113.326 520.508 114.717C517.809 116.168 513.861 115.877 510.223 113.296C509.06 112.408 507.671 111.659 506.051 111.075C500.679 109.137 496.04 108.532 492.054 108.956C492.669 107.372 492.884 105.656 492.739 104.054C492.41 100.421 490.123 96.6673 485.642 96.1694L485.234 99.8459C487.415 100.088 488.829 101.887 489.055 104.388C489.281 106.889 488.214 109.394 486.117 110.51C480.948 112.782 477.57 117.019 475.38 121.503C475.315 120.686 475.233 119.88 475.129 119.088C474.582 114.909 473.402 110.862 470.62 107.245C470.526 107.123 470.432 107.003 470.338 106.885C468.449 104.406 467.487 101.809 467.487 99.9973C467.487 99.0774 467.729 98.5337 468.01 98.2319C468.268 97.9541 468.786 97.6362 469.894 97.6362V93.937C468.041 93.937 466.431 94.4982 465.301 95.7127C464.194 96.9031 463.788 98.4648 463.788 99.9973C463.788 100.471 463.826 100.957 463.9 101.452C463.392 101.204 462.872 100.984 462.337 100.79C459.31 99.691 455.975 99.4894 452.154 99.4896C451.838 99.4813 451.528 99.4826 451.226 99.4931C450.066 99.5013 448.779 99.5224 447.444 99.5443H447.444C443.802 99.6041 439.806 99.6697 437.074 99.4934L436.836 103.185C438.717 103.306 441.202 103.319 443.734 103.296C442.451 105.363 442.299 107.856 442.783 110.025C443.301 112.342 444.615 114.614 446.563 115.936C447.557 116.61 448.737 117.047 450.04 117.061C451.349 117.075 452.656 116.66 453.895 115.834L451.843 112.756C451.14 113.226 450.55 113.367 450.079 113.362C449.603 113.357 449.12 113.201 448.64 112.875C447.638 112.195 446.755 110.834 446.393 109.218C446.035 107.613 446.261 106.08 447.028 105.022C447.674 104.132 448.915 103.289 451.277 103.192C451.573 103.19 451.858 103.189 452.13 103.189C455.909 103.188 458.692 103.402 461.075 104.267C463.295 105.073 465.303 106.497 467.422 109.16C467.468 109.22 467.514 109.281 467.561 109.341C467.587 109.373 467.612 109.405 467.637 109.437C467.657 109.463 467.678 109.488 467.698 109.513C469.937 112.43 470.964 115.77 471.462 119.569C471.82 122.306 471.893 125.145 471.972 128.192V128.192V128.192C471.991 128.915 472.01 129.65 472.033 130.398C472.01 131.145 471.991 131.88 471.972 132.603V132.603C471.893 135.65 471.82 138.489 471.462 141.227C470.964 145.025 469.937 148.365 467.698 151.282C467.658 151.332 467.618 151.382 467.578 151.433C467.526 151.5 467.474 151.567 467.422 151.635C465.303 154.298 463.295 155.722 461.075 156.528C458.692 157.393 455.909 157.608 452.13 157.607C451.858 157.607 451.573 157.605 451.277 157.603C448.915 157.507 447.674 156.663 447.028 155.773C446.261 154.715 446.035 153.183 446.393 151.577C446.755 149.961 447.638 148.6 448.64 147.921C449.12 147.595 449.603 147.439 450.079 147.434C450.55 147.429 451.14 147.57 451.843 148.039L453.895 144.961C452.656 144.135 451.349 143.721 450.04 143.735C448.737 143.748 447.557 144.185 446.563 144.86C444.615 146.181 443.301 148.453 442.783 150.77C442.299 152.939 442.451 155.433 443.734 157.5C441.202 157.477 438.717 157.489 436.836 157.61L437.074 161.302C439.807 161.126 443.803 161.191 447.444 161.251L447.446 161.251C448.78 161.273 450.067 161.294 451.226 161.302C451.528 161.313 451.838 161.314 452.154 161.306C455.975 161.306 459.31 161.104 462.337 160.006C462.872 159.812 463.392 159.592 463.9 159.343C463.826 159.838 463.788 160.325 463.788 160.798C463.788 162.331 464.194 163.892 465.301 165.083C466.431 166.297 468.041 166.858 469.894 166.858V163.159C468.786 163.159 468.268 162.841 468.01 162.563C467.729 162.262 467.487 161.718 467.487 160.798C467.487 158.986 468.449 156.39 470.338 153.911C470.432 153.792 470.526 153.672 470.62 153.55C473.402 149.933 474.582 145.887 475.129 141.707C475.233 140.915 475.315 140.109 475.38 139.292C477.57 143.776 480.948 148.013 486.117 150.285C488.214 151.401 489.281 153.906 489.055 156.408C488.829 158.909 487.415 160.707 485.234 160.949L485.642 164.626C490.123 164.128 492.41 160.374 492.739 156.741C492.884 155.139 492.669 153.424 492.054 151.839C496.04 152.263 500.679 151.659 506.051 149.721C506.776 149.459 507.455 149.164 508.088 148.839C509.732 150.656 511.893 151.932 514.596 152.05L514.756 148.354C513.485 148.299 512.308 147.747 511.289 146.812C514.615 144.878 518.071 144.768 520.508 146.078C523.096 147.47 525.171 150.83 524.317 156.981L527.981 157.49C528.977 150.314 526.612 145.16 522.26 142.82C518.36 140.723 513.406 141.199 509.134 143.792C508.752 142.995 508.432 142.116 508.184 141.171C507.661 139.186 507.539 137.145 507.811 135.451C508.088 133.72 508.725 132.616 509.454 132.092C512.262 130.122 514.193 126.825 514.581 123.344C514.741 121.912 514.639 120.442 514.23 119.023ZM505.988 145.75C505.385 144.571 504.926 143.327 504.606 142.112C503.972 139.702 503.794 137.138 504.158 134.865C504.209 134.546 504.272 134.226 504.348 133.909C502.861 133.998 501.37 133.73 499.994 133.086C496.937 131.654 494.751 128.521 494.33 124.095L498.012 123.744C498.331 127.092 499.883 128.949 501.563 129.735C503.285 130.541 505.453 130.378 507.323 129.068C509.244 127.723 510.631 125.389 510.905 122.934C511.171 120.551 510.392 118.088 507.998 116.251C507.165 115.612 506.112 115.029 504.796 114.554C497.172 111.804 491.661 112.132 487.656 113.874C480.924 116.804 477.633 124.13 476.175 130.398C477.633 136.665 480.924 143.991 487.656 146.921C491.661 148.664 497.172 148.991 504.796 146.241C505.22 146.088 505.617 145.924 505.988 145.75Z" fill="#E85F34"></path></g></svg> 