<?xml version="1.0" encoding="UTF-8"?> <svg xmlns="http://www.w3.org/2000/svg" width="442" height="464" viewBox="0 0 442 464" fill="none"><path d="M221 0.966156L269.609 81.3375L269.833 81.7072L270.231 81.5396L356.798 45.0897L348.883 138.683L348.847 139.114L349.267 139.212L440.726 160.607L379.31 231.673L379.027 232L379.31 232.327L440.726 303.393L349.267 324.788L348.847 324.886L348.883 325.317L356.798 418.91L270.231 382.46L269.833 382.293L269.609 382.663L221 463.034L172.391 382.663L172.167 382.293L171.769 382.46L85.2017 418.91L93.1169 325.317L93.1534 324.886L92.7326 324.788L1.27374 303.393L62.6903 232.327L62.9728 232L62.6903 231.673L1.27375 160.607L92.7326 139.212L93.1534 139.114L93.1169 138.683L85.2017 45.0897L171.769 81.5396L172.167 81.7072L172.391 81.3375L221 0.966156Z" fill="#F7BC39" stroke="#16322E"></path></svg> 