<?xml version="1.0" encoding="UTF-8"?> <svg xmlns="http://www.w3.org/2000/svg" width="201" height="66" viewBox="0 0 201 66" fill="none"><path d="M0.0390625 64.6168V12.324H17.7083C21.8107 12.324 25.1641 13.0645 27.7685 14.5454C30.39 16.0094 32.3305 17.9925 33.5902 20.4948C34.8499 22.9971 35.4797 25.7887 35.4797 28.8698C35.4797 31.9508 34.8499 34.751 33.5902 37.2703C32.3476 39.7897 30.424 41.7983 27.8196 43.2963C25.2152 44.7772 21.8788 45.5177 17.8104 45.5177H5.14578V39.9003H17.6062C20.4149 39.9003 22.6703 39.4152 24.3726 38.4449C26.0748 37.4746 27.3089 36.1639 28.0749 34.5127C28.858 32.8445 29.2495 30.9635 29.2495 28.8698C29.2495 26.776 28.858 24.9036 28.0749 23.2524C27.3089 21.6012 26.0663 20.3075 24.347 19.3713C22.6278 18.418 20.3468 17.9414 17.504 17.9414H6.37139V64.6168H0.0390625Z" fill="black"></path><path d="M37.052 64.6168V12.324H54.7213C58.8067 12.324 62.1601 13.0219 64.7815 14.4178C67.403 15.7966 69.3435 17.6946 70.6032 20.1118C71.8628 22.529 72.4927 25.2781 72.4927 28.3591C72.4927 31.4402 71.8628 34.1723 70.6032 36.5554C69.3435 38.9385 67.4115 40.811 64.807 42.1728C62.2026 43.5176 58.8747 44.1899 54.8234 44.1899H40.5246V38.4704H54.6191C57.4108 38.4704 59.6578 38.0619 61.36 37.2448C63.0793 36.4277 64.3219 35.2702 65.0879 33.7722C65.871 32.2572 66.2625 30.4529 66.2625 28.3591C66.2625 26.2654 65.871 24.4355 65.0879 22.8694C64.3049 21.3033 63.0537 20.0947 61.3345 19.2436C59.6152 18.3755 57.3427 17.9414 54.517 17.9414H43.3844V64.6168H37.052ZM61.6664 41.1259L74.5354 64.6168H67.1817L54.517 41.1259H61.6664Z" fill="black"></path><path d="M74.4161 64.6168V12.324H80.7484V35.6107H108.631V12.324H114.963V64.6168H108.631V41.228H80.7484V64.6168H74.4161Z" fill="black"></path><path d="M153.33 12.324H159.662V46.9476C159.662 50.5223 158.819 53.714 157.134 56.5227C155.466 59.3143 153.108 61.5187 150.061 63.1359C147.014 64.736 143.44 65.536 139.337 65.536C135.235 65.536 131.66 64.736 128.613 63.1359C125.566 61.5187 123.2 59.3143 121.515 56.5227C119.847 53.714 119.013 50.5223 119.013 46.9476V12.324H125.345V46.4369C125.345 48.9903 125.907 51.2627 127.03 53.2544C128.154 55.229 129.754 56.7865 131.83 57.927C133.924 59.0505 136.426 59.6122 139.337 59.6122C142.248 59.6122 144.75 59.0505 146.844 57.927C148.938 56.7865 150.538 55.229 151.644 53.2544C152.768 51.2627 153.33 48.9903 153.33 46.4369V12.324Z" fill="black"></path><path d="M163.679 64.6168V12.324H181.961C185.604 12.324 188.609 12.9539 190.975 14.2135C193.341 15.4561 195.103 17.1328 196.26 19.2436C197.418 21.3374 197.996 23.6609 197.996 26.2143C197.996 28.4613 197.596 30.3167 196.796 31.7806C196.013 33.2445 194.975 34.4021 193.681 35.2532C192.405 36.1043 191.017 36.7341 189.519 37.1427V37.6533C191.119 37.7555 192.728 38.3172 194.345 39.3386C195.962 40.3599 197.315 41.8238 198.405 43.7303C199.494 45.6368 200.039 47.9689 200.039 50.7265C200.039 53.348 199.443 55.7056 198.252 57.7994C197.06 59.8931 195.179 61.5528 192.609 62.7784C190.038 64.004 186.693 64.6168 182.574 64.6168H163.679ZM170.012 58.9994H182.574C186.711 58.9994 189.647 58.1994 191.383 56.5993C193.136 54.9821 194.013 53.0246 194.013 50.7265C194.013 48.9562 193.562 47.3221 192.66 45.8241C191.758 44.3091 190.472 43.1005 188.804 42.1983C187.136 41.2791 185.161 40.8195 182.88 40.8195H170.012V58.9994ZM170.012 35.3043H181.757C183.664 35.3043 185.383 34.9298 186.915 34.1808C188.464 33.4318 189.689 32.3764 190.592 31.0146C191.511 29.6528 191.97 28.0527 191.97 26.2143C191.97 23.9163 191.17 21.9672 189.57 20.3671C187.97 18.75 185.434 17.9414 181.961 17.9414H170.012V35.3043Z" fill="black"></path><path d="M128.049 9.88106C126.79 9.88106 125.709 9.42996 124.807 8.52778C123.905 7.62559 123.453 6.54467 123.453 5.28501C123.453 4.02535 123.905 2.94443 124.807 2.04224C125.709 1.14006 126.79 0.688965 128.049 0.688965C129.309 0.688965 130.39 1.14006 131.292 2.04224C132.194 2.94443 132.646 4.02535 132.646 5.28501C132.646 6.11911 132.433 6.88512 132.007 7.58303C131.599 8.28095 131.045 8.84269 130.348 9.26825C129.667 9.67679 128.901 9.88106 128.049 9.88106Z" fill="black"></path><path d="M139.222 9.88106C137.963 9.88106 136.882 9.42996 135.98 8.52778C135.078 7.62559 134.626 6.54467 134.626 5.28501C134.626 4.02535 135.078 2.94443 135.98 2.04224C136.882 1.14006 137.963 0.688965 139.222 0.688965C140.482 0.688965 141.563 1.14006 142.465 2.04224C143.367 2.94443 143.819 4.02535 143.819 5.28501C143.819 6.11911 143.606 6.88512 143.18 7.58303C142.772 8.28095 142.218 8.84269 141.52 9.26825C140.84 9.67679 140.074 9.88106 139.222 9.88106Z" fill="black"></path><path d="M150.395 9.88106C149.136 9.88106 148.055 9.42996 147.153 8.52778C146.251 7.62559 145.799 6.54467 145.799 5.28501C145.799 4.02535 146.251 2.94443 147.153 2.04224C148.055 1.14006 149.136 0.688965 150.395 0.688965C151.655 0.688965 152.736 1.14006 153.638 2.04224C154.54 2.94443 154.992 4.02535 154.992 5.28501C154.992 6.11911 154.779 6.88512 154.353 7.58303C153.945 8.28095 153.391 8.84269 152.693 9.26825C152.013 9.67679 151.247 9.88106 150.395 9.88106Z" fill="black"></path></svg> 