<?xml version="1.0" encoding="UTF-8"?> <svg xmlns="http://www.w3.org/2000/svg" width="464" height="391" viewBox="0 0 464 391" fill="none"><path d="M439.744 5L452.102 200.927L23.7954 227.942L11.4375 32.015L439.744 5Z" fill="#F4F0E9"></path><path fill-rule="evenodd" clip-rule="evenodd" d="M442.081 2.34766L454.754 203.265L21.4578 230.595L8.78516 29.6774L442.081 2.34766ZM14.1904 35.9449L26.1332 225.29L449.449 198.59L437.505 9.21898L231.172 130.678L14.1904 35.9449ZM429.458 8.1538L21.9102 33.8595L230.834 125.074L429.458 8.1538Z" fill="#E85F34"></path><path d="M460.543 192.818L425.109 385.911L3 308.451L38.4337 115.358L460.543 192.818Z" fill="#F4F0E9"></path><path fill-rule="evenodd" clip-rule="evenodd" d="M36.426 112.448L463.453 190.81L427.117 388.821L0.0898438 310.459L36.426 112.448ZM40.1535 119.838L5.91019 306.443L423.101 383L457.349 196.37L227.753 264.274L40.1535 119.838ZM449.8 193.388L48.1485 119.683L228.782 258.756L449.8 193.388Z" fill="#E85F34"></path></svg> 