<?xml version="1.0" encoding="UTF-8"?> <svg xmlns="http://www.w3.org/2000/svg" width="600" height="400" viewBox="0 0 600 400" fill="none"><mask id="mask0_94_288" style="mask-type:alpha" maskUnits="userSpaceOnUse" x="0" y="0" width="600" height="400"><rect width="600" height="400" transform="matrix(1 0 0 -1 0 400)" fill="#D9D9D9"></rect></mask><g mask="url(#mask0_94_288)"><path fill-rule="evenodd" clip-rule="evenodd" d="M1.84957 -224H0V-222.15V-144.961V-143.111V-143.11V-141.261V450.149V451.998H1.84957H598.148H599.998V450.149L599.998 -141.261V-143.11L599.998 -143.111V-144.961L599.998 -222.15V-224H598.148H1.84957ZM596.299 -144.961V-220.301H3.69914V-144.961H596.299ZM3.69914 -141.261H596.299V448.299H3.69914V-141.261ZM47.5933 434.009H49.4429H551.667H553.517V432.159V404.395H581.275H583.125V402.545V-16.0817V-17.9312H581.275H553.517V-45.6955V-47.5451H551.667H49.813H47.9634V-45.6955V-17.9312H20.205H18.3555V-16.0817V402.545V404.395H20.205H47.5933V432.159V434.009ZM51.2924 430.31V402.545V400.696H49.4429H22.0546V-14.2321H49.813H51.6625V-16.0817V-43.8459H549.818V-16.0817V-14.2321H551.667H579.426V400.696H551.667H549.818V402.545V430.31H51.2924ZM60.3078 -107.24L54.9207 -109.705L49.5335 -107.24L43.9821 -105.173L41.915 -99.6202L39.4511 -94.232L41.915 -88.8438L43.9821 -83.2912L49.5335 -81.2237L54.9207 -78.7594L60.3078 -81.2237L65.8593 -83.2912L67.9264 -88.8438L70.3902 -94.232L67.9264 -99.6202L65.8593 -105.173L60.3078 -107.24ZM578.241 -109.705L583.628 -107.24L589.18 -105.173L591.247 -99.6202L593.711 -94.232L591.247 -88.8438L589.18 -83.2912L583.628 -81.2237L578.241 -78.7594L572.854 -81.2237L567.302 -83.2912L565.235 -88.8438L562.771 -94.232L565.235 -99.6202L567.302 -105.173L572.854 -107.24L578.241 -109.705ZM72.7597 -94.1572L87.5637 -83.7923L103.108 -94.1572L87.5637 -104.522L72.7597 -94.1572ZM21.6848 -83.7923L6.88082 -94.1572L21.6848 -104.522L37.229 -94.1572L21.6848 -83.7923ZM530.201 -94.1572L545.005 -83.7923L560.549 -94.1572L545.005 -104.522L530.201 -94.1572ZM85.3516 -109.862L67.5561 -106.721L70.6965 -124.52L89.0154 -128.185L85.3516 -109.862ZM20.974 -60.1295L38.7696 -63.2705L42.4334 -81.5931L24.1144 -77.9286L20.974 -60.1295ZM562.09 -63.2705L544.294 -60.1295L547.435 -77.9286L565.754 -81.5931L562.09 -63.2705ZM67.5571 -81.5929L70.6975 -63.7937L89.0165 -60.1292L85.3527 -78.4518L67.5571 -81.5929ZM24.1155 -110.386L20.9751 -128.185L38.7707 -125.044L42.4345 -106.721L24.1155 -110.386ZM544.295 -128.185L547.436 -110.386L565.755 -106.721L562.091 -125.044L544.295 -128.185ZM117.226 -94.8972L97.086 -127.992L100.246 -129.915L120.972 -95.8588L121.557 -94.8972L120.972 -93.9357L100.246 -59.8798L97.086 -61.8029L117.226 -94.8972ZM107.449 -127.992L127.59 -94.8972L107.449 -61.8029L110.609 -59.8798L131.335 -93.9357L131.92 -94.8972L131.335 -95.8588L110.609 -129.915L107.449 -127.992ZM137.953 -94.8972L117.813 -127.992L120.973 -129.915L141.698 -95.8588L142.283 -94.8972L141.698 -93.9357L120.973 -59.8798L117.813 -61.8029L137.953 -94.8972ZM128.176 -127.992L148.316 -94.8972L128.176 -61.8029L131.336 -59.8798L152.061 -93.9357L152.647 -94.8972L152.061 -95.8588L131.336 -129.915L128.176 -127.992ZM158.676 -94.8972L138.535 -127.992L141.695 -129.915L162.421 -95.8588L163.006 -94.8972L162.421 -93.9357L141.695 -59.8798L138.535 -61.8029L158.676 -94.8972ZM148.902 -127.992L169.043 -94.8972L148.902 -61.8029L152.062 -59.8798L172.788 -93.9357L173.373 -94.8972L172.788 -95.8588L152.062 -129.915L148.902 -127.992ZM197.855 -128.953L208.958 -128.213V-118.869L217.841 -118.129V-102.793L221.542 -108.512L231.534 -104.192L228.944 -94.6113L227.463 -68.6864L221.542 -61.2115H185.642L179.72 -68.6864L178.24 -94.6113L175.279 -104.192L185.642 -108.512L189.713 -102.015V-118.129L197.855 -118.869V-128.953ZM203.371 -98.3469L204.008 -98.127L214.741 -94.4252L215.145 -94.2861L215.446 -93.9844L223.218 -86.2108L220.602 -83.5954L213.132 -91.0673L203.44 -94.41L194.835 -91.0999L187.72 -83.6277L185.041 -86.1785L192.443 -93.9521L192.73 -94.2535L193.119 -94.403L202.741 -98.1047L203.371 -98.3469ZM206.868 -89.7809L203.775 -91.1958L200.682 -89.7809L197.494 -88.5937L196.307 -85.4055L194.893 -82.3117L196.307 -79.2178L197.494 -76.0296L200.682 -74.8425L203.775 -73.4275L206.868 -74.8425L210.056 -76.0296L211.243 -79.2178L212.657 -82.3117L211.243 -85.4055L210.056 -88.5937L206.868 -89.7809ZM204.008 -66.1261L203.371 -65.9061L202.741 -66.1483L193.119 -69.85L192.73 -69.9995L192.443 -70.3008L185.041 -78.0745L187.72 -80.6254L194.835 -73.1531L203.44 -69.843L213.132 -73.1857L220.602 -80.6576L223.218 -78.0422L215.446 -70.2686L215.145 -69.9669L214.741 -69.8278L204.008 -66.1261ZM236.811 -102.67H234.361L235.032 -100.314L247.368 -57.0034L249.032 -51.162L250.906 -56.9394L263.263 -95.0301L274.095 -57.0036L275.759 -51.1621L277.633 -56.9396L289.994 -95.043L300.829 -57.0036L302.493 -51.1621L304.367 -56.9396L316.724 -95.0302L327.556 -57.0036L329.22 -51.1621L331.094 -56.9396L343.453 -95.0366L354.286 -57.0036L355.95 -51.1621L357.824 -56.9396L370.182 -95.0341L381.015 -57.0034L382.679 -51.162L384.553 -56.9394L398.603 -100.25L399.389 -102.67H396.844H263.197H236.811ZM356.18 -63.8584L346.178 -98.9708H367.571L356.18 -63.8584ZM340.84 -98.9708H319.448L329.45 -63.8584L340.84 -98.9708ZM302.723 -63.8584L292.721 -98.9708H314.114L302.723 -63.8584ZM287.379 -98.9708H265.987L275.989 -63.8584L287.379 -98.9708ZM249.262 -63.8582L239.26 -98.9708H260.653L249.262 -63.8582ZM382.909 -63.8582L372.907 -98.9708H394.3L382.909 -63.8582ZM233.381 -108.595H399.925V-112.294H233.381V-108.595ZM399.925 -118.22H233.381V-121.919H399.925V-118.22ZM423.618 -123.031C423.618 -118.94 420.303 -115.625 416.214 -115.625C412.126 -115.625 408.81 -118.94 408.81 -123.031C408.81 -127.122 412.126 -130.437 416.214 -130.437C420.303 -130.437 423.618 -127.122 423.618 -123.031ZM427.317 -123.031C427.317 -117.398 423.125 -112.745 417.691 -112.023V-106.646C423.125 -105.923 427.317 -101.27 427.317 -95.6379C427.317 -90.0055 423.125 -85.3525 417.691 -84.6301V-79.2533C423.125 -78.5308 427.317 -73.8778 427.317 -68.2455C427.317 -62.1122 422.346 -57.1403 416.214 -57.1403C410.082 -57.1403 405.111 -62.1122 405.111 -68.2455C405.111 -73.6176 408.925 -78.0987 413.992 -79.1282V-84.7551C408.925 -85.7846 405.111 -90.2658 405.111 -95.6379C405.111 -101.01 408.925 -105.491 413.992 -106.521V-112.148C408.925 -113.177 405.111 -117.659 405.111 -123.031C405.111 -129.164 410.082 -134.136 416.214 -134.136C422.346 -134.136 427.317 -129.164 427.317 -123.031ZM416.214 -88.2318C420.303 -88.2318 423.618 -91.5469 423.618 -95.6379C423.618 -99.7288 420.303 -103.044 416.214 -103.044C412.126 -103.044 408.81 -99.7288 408.81 -95.6379C408.81 -91.5469 412.126 -88.2318 416.214 -88.2318ZM423.618 -68.2455C423.618 -64.1545 420.303 -60.8394 416.214 -60.8394C412.126 -60.8394 408.81 -64.1545 408.81 -68.2455C408.81 -72.3364 412.126 -75.6515 416.214 -75.6515C420.303 -75.6515 423.618 -72.3364 423.618 -68.2455ZM514.23 -104.977C517.036 -104.415 519.849 -104.729 522.26 -106.025C526.612 -108.365 528.977 -113.519 527.981 -120.694L524.317 -120.185C525.171 -114.034 523.096 -110.674 520.508 -109.283C517.809 -107.832 513.861 -108.123 510.223 -110.704C509.06 -111.592 507.671 -112.341 506.051 -112.925C500.679 -114.863 496.04 -115.468 492.054 -115.044C492.669 -116.628 492.884 -118.344 492.739 -119.946C492.41 -123.579 490.123 -127.333 485.642 -127.831L485.234 -124.154C487.415 -123.912 488.829 -122.113 489.055 -119.612C489.281 -117.111 488.214 -114.606 486.117 -113.49C480.948 -111.218 477.57 -106.981 475.38 -102.497C475.315 -103.314 475.233 -104.12 475.129 -104.912C474.582 -109.091 473.402 -113.138 470.62 -116.755C470.526 -116.877 470.432 -116.997 470.338 -117.115C468.449 -119.594 467.487 -122.191 467.487 -124.003C467.487 -124.923 467.729 -125.466 468.01 -125.768C468.268 -126.046 468.786 -126.364 469.894 -126.364V-130.063C468.041 -130.063 466.431 -129.502 465.301 -128.287C464.194 -127.097 463.788 -125.535 463.788 -124.003C463.788 -123.529 463.826 -123.043 463.9 -122.548C463.392 -122.796 462.872 -123.016 462.337 -123.21C459.31 -124.309 455.975 -124.511 452.154 -124.51C451.838 -124.519 451.528 -124.517 451.226 -124.507C450.066 -124.499 448.779 -124.478 447.444 -124.456H447.444C443.802 -124.396 439.806 -124.33 437.074 -124.507L436.836 -120.815C438.717 -120.694 441.202 -120.681 443.734 -120.704C442.451 -118.637 442.299 -116.144 442.783 -113.975C443.301 -111.658 444.615 -109.386 446.563 -108.064C447.557 -107.39 448.737 -106.953 450.04 -106.939C451.349 -106.925 452.656 -107.34 453.895 -108.166L451.843 -111.244C451.14 -110.774 450.55 -110.633 450.079 -110.638C449.603 -110.643 449.12 -110.799 448.64 -111.125C447.638 -111.805 446.755 -113.166 446.393 -114.782C446.035 -116.387 446.261 -117.92 447.028 -118.978C447.674 -119.868 448.915 -120.711 451.277 -120.808C451.573 -120.81 451.858 -120.811 452.13 -120.811C455.909 -120.812 458.692 -120.598 461.075 -119.733C463.295 -118.927 465.303 -117.503 467.422 -114.84C467.468 -114.78 467.514 -114.719 467.561 -114.659C467.587 -114.627 467.612 -114.595 467.637 -114.563C467.657 -114.537 467.678 -114.512 467.698 -114.487C469.937 -111.57 470.964 -108.23 471.462 -104.431C471.82 -101.694 471.893 -98.8552 471.972 -95.808V-95.8078V-95.8076C471.991 -95.0847 472.01 -94.3501 472.033 -93.6023C472.01 -92.8545 471.991 -92.1199 471.972 -91.3971V-91.3969C471.893 -88.3496 471.82 -85.5111 471.462 -82.7735C470.964 -78.9748 469.937 -75.635 467.698 -72.7179C467.658 -72.6678 467.618 -72.6176 467.578 -72.5672C467.526 -72.5 467.474 -72.4325 467.422 -72.3648C465.303 -69.7016 463.295 -68.2775 461.075 -67.4716C458.692 -66.6067 455.909 -66.3923 452.13 -66.3934C451.858 -66.3935 451.573 -66.3948 451.277 -66.397C448.915 -66.4932 447.674 -67.3368 447.028 -68.2269C446.261 -69.2848 446.035 -70.8173 446.393 -72.423C446.755 -74.039 447.638 -75.3997 448.64 -76.0793C449.12 -76.4053 449.603 -76.5614 450.079 -76.5665C450.55 -76.5714 451.14 -76.4303 451.843 -75.9611L453.895 -79.0387C452.656 -79.8651 451.349 -80.2792 450.04 -80.2654C448.737 -80.2516 447.557 -79.8149 446.563 -79.1403C444.615 -77.8186 443.301 -75.547 442.783 -73.2299C442.299 -71.061 442.451 -68.5672 443.734 -66.5005C441.202 -66.5233 438.717 -66.511 436.836 -66.3896L437.074 -62.6981C439.807 -62.8744 443.803 -62.8088 447.444 -62.749L447.446 -62.7489C448.78 -62.727 450.067 -62.7059 451.226 -62.6978C451.528 -62.6872 451.838 -62.686 452.154 -62.6942C455.975 -62.694 459.31 -62.8957 462.337 -63.9944C462.872 -64.1884 463.392 -64.4084 463.9 -64.6567C463.826 -64.1615 463.788 -63.6752 463.788 -63.202C463.788 -61.6695 464.194 -60.1078 465.301 -58.9173C466.431 -57.7028 468.041 -57.1417 469.894 -57.1417V-60.8408C468.786 -60.8408 468.268 -61.1588 468.01 -61.4366C467.729 -61.7384 467.487 -62.282 467.487 -63.202C467.487 -65.0137 468.449 -67.6105 470.338 -70.0893C470.432 -70.2077 470.526 -70.3277 470.62 -70.4496C473.402 -74.0666 474.582 -78.1135 475.129 -82.2931C475.233 -83.0849 475.315 -83.8911 475.38 -84.7078C477.57 -80.2241 480.948 -75.9865 486.117 -73.7147C488.214 -72.5989 489.281 -70.0936 489.055 -67.5924C488.829 -65.0915 487.415 -63.2929 485.234 -63.0505L485.642 -59.374C490.123 -59.872 492.41 -63.626 492.739 -67.259C492.884 -68.861 492.669 -70.5765 492.054 -72.161C496.04 -71.737 500.679 -72.3414 506.051 -74.2794C506.776 -74.541 507.455 -74.8357 508.088 -75.161C509.732 -73.344 511.893 -72.0677 514.596 -71.9501L514.756 -75.6458C513.485 -75.7011 512.308 -76.2533 511.289 -77.1876C514.615 -79.1221 518.071 -79.2321 520.508 -77.9217C523.096 -76.5303 525.171 -73.1703 524.317 -67.0193L527.981 -66.5105C528.977 -73.6857 526.612 -78.8397 522.26 -81.1797C518.36 -83.2768 513.406 -82.8013 509.134 -80.2084C508.752 -81.0051 508.432 -81.8845 508.184 -82.8288C507.661 -84.8145 507.539 -86.8548 507.811 -88.5493C508.088 -90.2798 508.725 -91.3839 509.454 -91.9081C512.262 -93.8784 514.193 -97.1754 514.581 -100.656C514.741 -102.088 514.639 -103.558 514.23 -104.977ZM505.988 -78.2503C505.385 -79.429 504.926 -80.6729 504.606 -81.8876C503.972 -84.2978 503.794 -86.8615 504.158 -89.1348C504.209 -89.4545 504.272 -89.774 504.348 -90.0908C502.861 -90.0018 501.37 -90.2704 499.994 -90.9144C496.937 -92.3456 494.751 -95.479 494.33 -99.9049L498.012 -100.256C498.331 -96.9078 499.883 -95.051 501.563 -94.2647C503.285 -93.4585 505.453 -93.6222 507.323 -94.9322C509.244 -96.2771 510.631 -98.6114 510.905 -101.066C511.171 -103.449 510.392 -105.912 507.998 -107.749C507.165 -108.388 506.112 -108.971 504.796 -109.446C497.172 -112.196 491.661 -111.868 487.656 -110.126C480.924 -107.196 477.633 -99.8701 476.175 -93.6023C477.633 -87.3345 480.924 -80.009 487.656 -77.079C491.661 -75.3365 497.172 -75.0091 504.796 -77.759C505.22 -77.9121 505.617 -78.0764 505.988 -78.2503Z" fill="#E85F34"></path></g></svg> 