<?xml version="1.0" encoding="UTF-8"?> <svg xmlns="http://www.w3.org/2000/svg" viewBox="0 0 92.87 92.87"><defs><style>.cls-1{fill:#f6bb48;}.cls-2{fill:#178370;fill-rule:evenodd;}</style></defs><g id="OBJECTS"><circle class="cls-1" cx="46.44" cy="46.44" r="46.44"></circle><path class="cls-2" d="M59.09,51.65c-.65-.36-3.85-2.08-4.45-2.33s-1-.37-1.5.28-1.8,2.09-2.2,2.52-.79.47-1.44.11a18.32,18.32,0,0,1-5.21-3.49A20.15,20.15,0,0,1,40.78,44c-.36-.68,0-1,.34-1.35s.69-.75,1-1.12a4.44,4.44,0,0,0,.7-1.08,1.22,1.22,0,0,0,0-1.16c-.15-.34-1.35-3.65-1.86-5s-1.06-1.14-1.45-1.16-.82-.08-1.26-.1a2.41,2.41,0,0,0-1.8.76A7.44,7.44,0,0,0,34,39.25c-.12,3.26,2.14,6.5,2.45,7s4.31,7.53,10.94,10.43,6.67,2,7.89,2,4-1.46,4.59-3a5.6,5.6,0,0,0,.51-3.13c-.16-.28-.6-.47-1.24-.82ZM46.91,19.8A25.95,25.95,0,0,0,24.69,59.15L20,73.08l14.37-4.6A26,26,0,1,0,46.91,19.8Z"></path></g></svg> 