<?xml version="1.0" encoding="UTF-8"?> <svg xmlns="http://www.w3.org/2000/svg" xmlns:xlink="http://www.w3.org/1999/xlink" version="1.1" id="Слой_1" x="0px" y="0px" viewBox="0 0 92.9 92.9" style="enable-background:new 0 0 92.9 92.9;" xml:space="preserve"> <style type="text/css"> .st0{fill:#F6BB48;} .st1{fill-rule:evenodd;clip-rule:evenodd;fill:#18413B;} </style> <g id="OBJECTS"> <circle class="st0" cx="46.4" cy="46.4" r="46.4"></circle> <path class="st1" d="M59.1,51.6c-0.7-0.4-3.8-2.1-4.5-2.3s-1-0.4-1.5,0.3s-1.8,2.1-2.2,2.5s-0.8,0.5-1.4,0.1 c-1.9-0.9-3.7-2-5.2-3.5c-1.4-1.4-2.6-3-3.5-4.7c-0.4-0.7,0-1,0.3-1.3s0.7-0.8,1-1.1c0.3-0.3,0.5-0.7,0.7-1.1 c0.2-0.4,0.2-0.8,0-1.2c-0.2-0.3-1.3-3.7-1.9-5s-1.1-1.1-1.5-1.2S38.7,33,38.2,33c-0.7,0-1.3,0.3-1.8,0.8c-1.5,1.4-2.4,3.4-2.5,5.5 c-0.1,3.3,2.1,6.5,2.5,7s4.3,7.5,10.9,10.4s6.7,2,7.9,2s4-1.5,4.6-3c0.5-1,0.6-2.1,0.5-3.1C60.2,52.3,59.8,52.1,59.1,51.6 L59.1,51.6z M46.9,19.8c-14.3,0-25.9,11.6-25.9,26c0,4.7,1.3,9.4,3.7,13.4L20,73.1l14.4-4.6c12.5,7,28.4,2.6,35.4-10 s2.6-28.4-10-35.4C55.9,20.9,51.4,19.8,46.9,19.8z"></path> </g> </svg> 