<?xml version="1.0" encoding="UTF-8"?> <svg xmlns="http://www.w3.org/2000/svg" width="161" height="272" viewBox="0 0 161 272" fill="none"><path fill-rule="evenodd" clip-rule="evenodd" d="M40.9288 0.969727L47.408 2.16593L128.586 17.1532L132.4 17.8572L134.741 20.9479L158.296 52.0354L160.602 55.0798L160.292 58.8868L155.218 121.149L154.896 125.094L151.961 127.751L102.776 172.267L99.9195 174.853H96.066H63.8565L23.6259 212.683V252H159.999V272H13.6259H3.62589V262V208.36V204.037L6.77549 201.075L53.0429 157.568L55.9301 154.853H59.8933H92.2126L135.605 115.579L140.048 61.0692L121.142 36.1168L50.2561 23.0298L17.3186 72.416L0.679688 61.3189L37.273 6.45118L40.9288 0.969727Z" fill="#F4F0E9"></path></svg> 