<?xml version="1.0" encoding="UTF-8"?> <svg xmlns="http://www.w3.org/2000/svg" width="600" height="400" viewBox="0 0 600 400" fill="none"><mask id="mask0_93_146" style="mask-type:alpha" maskUnits="userSpaceOnUse" x="0" y="0" width="600" height="400"><rect width="600" height="400" transform="matrix(1 0 0 -1 0 400)" fill="#D9D9D9"></rect></mask><g mask="url(#mask0_93_146)"><path fill-rule="evenodd" clip-rule="evenodd" d="M1.84957 -286H0V-284.15V-196.961V-195.111V-193.262V398.149V399.998H1.84957H598.148H599.998V398.149L599.998 -193.262V-195.111L599.998 -196.961L599.998 -284.15V-286H598.148H1.84957ZM3.69914 -196.961V-282.301H596.299V-196.961H3.69914ZM3.69914 396.299V-193.262H596.299V396.299H3.69914ZM47.5933 382.009H49.4429H551.667H553.517V380.159V352.395H581.275H583.125V350.545V-68.0817V-69.9312H581.275H553.517V-97.6955V-99.5451H551.667H49.813H47.9634V-97.6955V-69.9312H20.205H18.3555V-68.0817V350.545V352.395H20.205H47.5933V380.159V382.009ZM51.2924 378.31V350.545V348.696H49.4429H22.0546V-66.2321H49.813H51.6625V-68.0817V-95.8459H549.818V-68.0817V-66.2321H551.667H579.426V348.696H551.667H549.818V350.545V378.31H51.2924ZM60.3078 -159.24L54.9207 -161.705L49.5335 -159.24L43.9821 -157.173L41.915 -151.62L39.4511 -146.232L41.915 -140.844L43.9821 -135.291L49.5335 -133.224L54.9207 -130.759L60.3078 -133.224L65.8593 -135.291L67.9264 -140.844L70.3902 -146.232L67.9264 -151.62L65.8593 -157.173L60.3078 -159.24ZM578.241 -161.705L583.628 -159.24L589.18 -157.173L591.247 -151.62L593.711 -146.232L591.247 -140.844L589.18 -135.291L583.628 -133.224L578.241 -130.759L572.854 -133.224L567.302 -135.291L565.235 -140.844L562.771 -146.232L565.235 -151.62L567.302 -157.173L572.854 -159.24L578.241 -161.705ZM72.7597 -146.157L87.5637 -135.792L103.108 -146.157L87.5637 -156.522L72.7597 -146.157ZM21.6848 -135.792L6.88082 -146.157L21.6848 -156.522L37.229 -146.157L21.6848 -135.792ZM530.201 -146.157L545.005 -135.792L560.549 -146.157L545.005 -156.522L530.201 -146.157ZM85.3516 -161.862L67.5561 -158.721L70.6965 -176.52L89.0154 -180.185L85.3516 -161.862ZM20.974 -112.129L38.7696 -115.271L42.4334 -133.593L24.1144 -129.929L20.974 -112.129ZM562.09 -115.271L544.294 -112.129L547.435 -129.929L565.754 -133.593L562.09 -115.271ZM67.5571 -133.593L70.6975 -115.794L89.0165 -112.129L85.3527 -130.452L67.5571 -133.593ZM24.1155 -162.386L20.9751 -180.185L38.7707 -177.044L42.4345 -158.721L24.1155 -162.386ZM544.295 -180.185L547.436 -162.386L565.755 -158.721L562.091 -177.044L544.295 -180.185ZM117.226 -146.897L97.086 -179.992L100.246 -181.915L120.972 -147.859L121.557 -146.897L120.972 -145.936L100.246 -111.88L97.086 -113.803L117.226 -146.897ZM107.449 -179.992L127.59 -146.897L107.449 -113.803L110.609 -111.88L131.335 -145.936L131.92 -146.897L131.335 -147.859L110.609 -181.915L107.449 -179.992ZM137.953 -146.897L117.813 -179.992L120.973 -181.915L141.698 -147.859L142.283 -146.897L141.698 -145.936L120.973 -111.88L117.813 -113.803L137.953 -146.897ZM128.176 -179.992L148.316 -146.897L128.176 -113.803L131.336 -111.88L152.061 -145.936L152.647 -146.897L152.061 -147.859L131.336 -181.915L128.176 -179.992ZM158.676 -146.897L138.535 -179.992L141.695 -181.915L162.421 -147.859L163.006 -146.897L162.421 -145.936L141.695 -111.88L138.535 -113.803L158.676 -146.897ZM148.902 -179.992L169.043 -146.897L148.902 -113.803L152.062 -111.88L172.788 -145.936L173.373 -146.897L172.788 -147.859L152.062 -181.915L148.902 -179.992ZM197.855 -180.953L208.958 -180.213V-170.869L217.841 -170.129V-154.793L221.542 -160.512L231.534 -156.192L228.944 -146.611L227.463 -120.686L221.542 -113.211H185.642L179.72 -120.686L178.24 -146.611L175.279 -156.192L185.642 -160.512L189.713 -154.015V-170.129L197.855 -170.869V-180.953ZM203.371 -150.347L204.008 -150.127L214.741 -146.425L215.145 -146.286L215.446 -145.984L223.218 -138.211L220.602 -135.595L213.132 -143.067L203.44 -146.41L194.835 -143.1L187.72 -135.628L185.041 -138.179L192.443 -145.952L192.73 -146.254L193.119 -146.403L202.741 -150.105L203.371 -150.347ZM206.868 -141.781L203.775 -143.196L200.682 -141.781L197.494 -140.594L196.307 -137.406L194.893 -134.312L196.307 -131.218L197.494 -128.03L200.682 -126.842L203.775 -125.428L206.868 -126.842L210.056 -128.03L211.243 -131.218L212.657 -134.312L211.243 -137.406L210.056 -140.594L206.868 -141.781ZM204.008 -118.126L203.371 -117.906L202.741 -118.148L193.119 -121.85L192.73 -121.999L192.443 -122.301L185.041 -130.074L187.72 -132.625L194.835 -125.153L203.44 -121.843L213.132 -125.186L220.602 -132.658L223.218 -130.042L215.446 -122.269L215.145 -121.967L214.741 -121.828L204.008 -118.126ZM236.811 -154.67H234.361L235.032 -152.314L247.368 -109.003L249.032 -103.162L250.906 -108.939L263.263 -147.03L274.095 -109.004L275.759 -103.162L277.633 -108.94L289.994 -147.043L300.829 -109.004L302.493 -103.162L304.367 -108.94L316.724 -147.03L327.556 -109.004L329.22 -103.162L331.094 -108.94L343.453 -147.037L354.286 -109.004L355.95 -103.162L357.824 -108.94L370.182 -147.034L381.015 -109.003L382.679 -103.162L384.553 -108.939L398.603 -152.25L399.389 -154.67H396.844H263.197H236.811ZM356.18 -115.858L346.178 -150.971H367.571L356.18 -115.858ZM340.84 -150.971H319.448L329.45 -115.858L340.84 -150.971ZM302.723 -115.858L292.721 -150.971H314.114L302.723 -115.858ZM287.379 -150.971H265.987L275.989 -115.858L287.379 -150.971ZM249.262 -115.858L239.26 -150.971H260.653L249.262 -115.858ZM382.909 -115.858L372.907 -150.971H394.3L382.909 -115.858ZM233.381 -160.595H399.925V-164.294H233.381V-160.595ZM399.925 -170.22H233.381V-173.919H399.925V-170.22ZM423.614 -175.031C423.614 -170.94 420.299 -167.625 416.21 -167.625C412.122 -167.625 408.807 -170.94 408.807 -175.031C408.807 -179.122 412.122 -182.437 416.21 -182.437C420.299 -182.437 423.614 -179.122 423.614 -175.031ZM427.313 -175.031C427.313 -169.398 423.121 -164.745 417.687 -164.023V-158.646C423.121 -157.923 427.313 -153.27 427.313 -147.638C427.313 -142.006 423.121 -137.353 417.687 -136.63V-131.253C423.121 -130.531 427.313 -125.878 427.313 -120.245C427.313 -114.112 422.342 -109.14 416.21 -109.14C410.078 -109.14 405.107 -114.112 405.107 -120.245C405.107 -125.618 408.921 -130.099 413.988 -131.128V-136.755C408.921 -137.785 405.107 -142.266 405.107 -147.638C405.107 -153.01 408.921 -157.491 413.988 -158.521V-164.148C408.921 -165.177 405.107 -169.659 405.107 -175.031C405.107 -181.164 410.078 -186.136 416.21 -186.136C422.342 -186.136 427.313 -181.164 427.313 -175.031ZM416.21 -140.232C420.299 -140.232 423.614 -143.547 423.614 -147.638C423.614 -151.729 420.299 -155.044 416.21 -155.044C412.122 -155.044 408.807 -151.729 408.807 -147.638C408.807 -143.547 412.122 -140.232 416.21 -140.232ZM423.614 -120.245C423.614 -116.155 420.299 -112.839 416.21 -112.839C412.122 -112.839 408.807 -116.155 408.807 -120.245C408.807 -124.336 412.122 -127.652 416.21 -127.652C420.299 -127.652 423.614 -124.336 423.614 -120.245ZM514.228 -156.977C517.034 -156.415 519.847 -156.729 522.258 -158.025C526.609 -160.365 528.975 -165.519 527.979 -172.694L524.315 -172.185C525.169 -166.034 523.094 -162.674 520.506 -161.283C517.807 -159.832 513.858 -160.123 510.221 -162.704C509.058 -163.592 507.669 -164.341 506.049 -164.925C500.677 -166.863 496.038 -167.468 492.052 -167.044C492.667 -168.628 492.882 -170.344 492.737 -171.946C492.408 -175.579 490.121 -179.333 485.64 -179.831L485.232 -176.154C487.413 -175.912 488.826 -174.113 489.053 -171.612C489.279 -169.111 488.212 -166.606 486.115 -165.49C480.946 -163.218 477.568 -158.981 475.378 -154.497C475.313 -155.314 475.231 -156.12 475.127 -156.912C474.58 -161.091 473.399 -165.138 470.618 -168.755C470.524 -168.877 470.43 -168.997 470.336 -169.115C468.447 -171.594 467.485 -174.191 467.485 -176.003C467.485 -176.923 467.727 -177.466 468.008 -177.768C468.266 -178.046 468.784 -178.364 469.892 -178.364V-182.063C468.039 -182.063 466.429 -181.502 465.299 -180.287C464.192 -179.097 463.786 -177.535 463.786 -176.003C463.786 -175.529 463.824 -175.043 463.897 -174.548C463.39 -174.796 462.869 -175.016 462.335 -175.21C459.308 -176.309 455.973 -176.511 452.152 -176.51C451.835 -176.519 451.526 -176.517 451.224 -176.507C450.064 -176.499 448.777 -176.478 447.442 -176.456H447.441C443.8 -176.396 439.804 -176.33 437.072 -176.507L436.834 -172.815C438.715 -172.694 441.2 -172.681 443.732 -172.704C442.449 -170.637 442.296 -168.144 442.781 -165.975C443.299 -163.658 444.613 -161.386 446.561 -160.064C447.555 -159.39 448.735 -158.953 450.038 -158.939C451.347 -158.925 452.654 -159.34 453.893 -160.166L451.841 -163.244C451.137 -162.774 450.548 -162.633 450.077 -162.638C449.601 -162.643 449.118 -162.799 448.638 -163.125C447.636 -163.805 446.752 -165.166 446.391 -166.782C446.032 -168.387 446.258 -169.92 447.026 -170.978C447.672 -171.868 448.913 -172.711 451.275 -172.808C451.571 -172.81 451.856 -172.811 452.128 -172.811C455.907 -172.812 458.69 -172.598 461.073 -171.733C463.293 -170.927 465.301 -169.503 467.42 -166.84C467.51 -166.721 467.602 -166.604 467.696 -166.487C469.934 -163.57 470.962 -160.23 471.459 -156.431C471.818 -153.694 471.891 -150.855 471.97 -147.808V-147.808V-147.808C471.989 -147.085 472.008 -146.35 472.031 -145.602C472.008 -144.855 471.989 -144.12 471.97 -143.397C471.891 -140.35 471.818 -137.511 471.459 -134.773C470.962 -130.975 469.934 -127.635 467.696 -124.718C467.602 -124.601 467.51 -124.483 467.42 -124.365C465.301 -121.702 463.293 -120.278 461.073 -119.472C458.69 -118.607 455.907 -118.392 452.128 -118.393C451.856 -118.393 451.571 -118.395 451.275 -118.397C448.913 -118.493 447.672 -119.337 447.026 -120.227C446.258 -121.285 446.032 -122.817 446.391 -124.423C446.752 -126.039 447.636 -127.4 448.638 -128.079C449.118 -128.405 449.601 -128.561 450.077 -128.566C450.548 -128.571 451.137 -128.43 451.841 -127.961L453.893 -131.039C452.654 -131.865 451.347 -132.279 450.038 -132.265C448.735 -132.252 447.555 -131.815 446.561 -131.14C444.613 -129.819 443.299 -127.547 442.781 -125.23C442.296 -123.061 442.449 -120.567 443.732 -118.501C441.2 -118.523 438.715 -118.511 436.834 -118.39L437.072 -114.698C439.804 -114.874 443.8 -114.809 447.441 -114.749H447.442C448.777 -114.727 450.064 -114.706 451.224 -114.698C451.526 -114.687 451.835 -114.686 452.152 -114.694C455.973 -114.694 459.308 -114.896 462.335 -115.994C462.869 -116.188 463.39 -116.408 463.897 -116.657C463.824 -116.162 463.786 -115.675 463.786 -115.202C463.786 -113.669 464.192 -112.108 465.299 -110.917C466.429 -109.703 468.039 -109.142 469.892 -109.142V-112.841C468.784 -112.841 468.266 -113.159 468.008 -113.437C467.727 -113.738 467.485 -114.282 467.485 -115.202C467.485 -117.014 468.447 -119.61 470.336 -122.089C470.43 -122.208 470.524 -122.328 470.618 -122.45C473.399 -126.067 474.58 -130.114 475.127 -134.293C475.231 -135.085 475.313 -135.891 475.378 -136.708C477.568 -132.224 480.946 -127.987 486.115 -125.715C488.212 -124.599 489.279 -122.094 489.053 -119.592C488.826 -117.092 487.413 -115.293 485.232 -115.051L485.64 -111.374C490.121 -111.872 492.408 -115.626 492.737 -119.259C492.882 -120.861 492.667 -122.577 492.052 -124.161C496.038 -123.737 500.677 -124.341 506.049 -126.279C506.774 -126.541 507.453 -126.836 508.086 -127.161C509.73 -125.344 511.891 -124.068 514.593 -123.95L514.754 -127.646C513.483 -127.701 512.305 -128.253 511.287 -129.188C514.613 -131.122 518.069 -131.232 520.506 -129.922C523.094 -128.53 525.169 -125.17 524.315 -119.019L527.979 -118.51C528.975 -125.686 526.609 -130.84 522.258 -133.18C518.358 -135.277 513.404 -134.801 509.132 -132.208C508.75 -133.005 508.43 -133.884 508.181 -134.829C507.659 -136.814 507.537 -138.855 507.808 -140.549C508.086 -142.28 508.723 -143.384 509.451 -143.908C512.26 -145.878 514.191 -149.175 514.579 -152.656C514.739 -154.088 514.637 -155.558 514.228 -156.977ZM505.986 -130.25C505.383 -131.429 504.924 -132.673 504.604 -133.888C503.97 -136.298 503.792 -138.862 504.156 -141.135C504.207 -141.454 504.27 -141.774 504.346 -142.091C502.859 -142.002 501.368 -142.27 499.992 -142.914C496.935 -144.346 494.749 -147.479 494.328 -151.905L498.01 -152.256C498.329 -148.908 499.881 -147.051 501.561 -146.265C503.283 -145.459 505.451 -145.622 507.321 -146.932C509.242 -148.277 510.629 -150.611 510.903 -153.066C511.169 -155.449 510.39 -157.912 507.996 -159.749C507.163 -160.388 506.11 -160.971 504.794 -161.446C497.17 -164.196 491.658 -163.868 487.654 -162.126C480.922 -159.196 477.631 -151.87 476.173 -145.602C477.631 -139.335 480.922 -132.009 487.654 -129.079C491.658 -127.336 497.17 -127.009 504.794 -129.759C505.218 -129.912 505.615 -130.076 505.986 -130.25Z" fill="#E85F34"></path></g></svg> 