<?xml version="1.0" encoding="UTF-8"?> <svg xmlns="http://www.w3.org/2000/svg" width="211" height="209" viewBox="0 0 211 209" fill="none"><path fill-rule="evenodd" clip-rule="evenodd" d="M86.5609 0.162486L88.7197 2.64187L98.4072 13.7676H104.629H105.644H111.866L121.554 2.64187L123.713 0.162486L125.713 2.77177L139.577 20.86L161.792 2.3424L162.539 1.71943H163.512H201.753H204.439V4.40625V42.6162V43.6056L203.798 44.3587L186.842 64.2596V73.0746L206.475 84.3482L210.248 86.5152L206.62 88.9182L193.272 97.7598V103.201V105.611V111.053L206.62 119.894L210.248 122.297L206.475 124.464L186.842 135.738V144.553L203.798 164.454L204.439 165.207V166.196V204.406V207.093H201.753H163.512H162.539L161.792 206.47L139.577 187.952L125.713 206.041L123.713 208.65L121.554 206.171L111.866 195.045H105.644H104.629H98.4072L88.7197 206.171L86.5609 208.65L84.5609 206.041L70.6968 187.952L48.4814 206.47L47.734 207.093H46.7611H8.52081H5.83399V204.406V166.196V165.207L6.47564 164.454L23.4313 144.553V135.738L3.79876 124.464L0.0250835 122.297L3.65301 119.894L17.0015 111.053V105.611V103.201V97.7598L3.65301 88.9182L0.0250835 86.5152L3.79876 84.3482L23.4313 73.0746V64.2597L6.47564 44.3587L5.83399 43.6056V42.6162V4.40625V1.71943H8.52081H46.7611H47.734L48.4814 2.3424L70.6968 20.86L84.5609 2.77177L86.5609 0.162486ZM22.3751 103.201V105.611V112.496V113.939L21.172 114.736L10.2484 121.971L27.4561 131.853L28.8049 132.627V134.182V145.542V146.532L28.1633 147.285L11.2076 167.186V201.719H45.7881L69.4062 182.033L71.5563 180.24L73.259 182.462L86.826 200.162L95.1578 190.594L95.961 189.671H97.1841H104.629H105.644H113.089H114.312L115.116 190.594L123.447 200.162L137.014 182.462L138.717 180.24L140.867 182.033L164.485 201.719H199.066V167.186L182.11 147.285L181.469 146.532V145.542V134.182V132.627L182.817 131.853L200.025 121.971L189.101 114.736L187.898 113.939V112.496V105.611V103.201V96.3167V94.8736L189.101 94.0767L200.025 86.8412L182.817 76.96L181.469 76.1854V74.63V63.2703V62.2809L182.11 61.5278L199.066 41.6268V7.09307H164.485L140.867 26.7799L138.717 28.5721L137.014 26.3505L123.447 8.65001L115.116 18.2188L114.312 19.1413H113.089H105.644H104.629H97.1841H95.961L95.1578 18.2188L86.826 8.65001L73.259 26.3505L71.5563 28.5721L69.4062 26.7799L45.7881 7.09307H11.2076V41.6268L28.1633 61.5278L28.8049 62.2809V63.2703V74.63V76.1854L27.4561 76.96L10.2484 86.8412L21.172 94.0767L22.3751 94.8736V96.3167V103.201ZM112.337 35.8411C111.544 36.5884 110.619 37.6353 109.66 38.906L107.729 37.5529V29.8796H102.355V37.5563L100.383 38.8518C99.4391 37.6055 98.5294 36.5778 97.7472 35.8411L94.0629 39.7528C94.9419 40.5807 96.2388 42.1393 97.5533 44.1787L96.0154 47.5468C94.2705 46.865 92.6083 46.389 91.278 46.1634L90.3798 51.4615C92.0606 51.7464 94.9124 52.7098 97.5202 54.194C100.019 55.6163 101.709 57.1847 102.344 58.574C102.289 59.6201 102.043 60.4252 101.567 61.1149C101.009 61.9235 99.9341 62.8637 97.7376 63.7462C93.3965 65.4902 85.5149 66.6858 71.5378 66.7744C70.6488 64.4034 70.5228 61.3114 70.9751 58.0896C71.5134 54.2553 72.7827 50.8552 73.7892 49.2588L69.2435 46.393C67.7265 48.7993 66.2664 52.978 65.6537 57.3425C65.5792 57.8729 65.5159 58.4155 65.4665 58.9665C64.3002 56.8857 63.2821 54.7399 62.4132 52.637C60.2251 47.3412 59.0889 42.5775 58.8619 40.1906L53.5124 40.6994C53.7507 43.2047 54.6733 47.1956 56.2694 51.6385L42.7316 37.7072L38.8778 41.4521L52.4811 55.4507C48.2352 53.7891 44.3991 52.797 41.9185 52.5529L41.3922 57.9007C43.6812 58.126 48.2464 59.3437 53.3767 61.6557C55.4431 62.587 57.5575 63.6764 59.6123 64.9183C59.1093 64.9568 58.6135 65.0079 58.1277 65.0693C53.8993 65.6045 49.8404 67.0059 47.4434 68.5695L50.3793 73.0703C51.9174 72.0669 55.14 70.864 58.8025 70.4005C61.8701 70.0122 64.8392 70.1944 67.1558 71.1219C67.0706 85.3808 65.8766 93.434 64.1361 97.8751C63.2544 100.125 62.316 101.224 61.5186 101.791C60.8529 102.264 60.0841 102.509 59.0903 102.567C57.7611 101.924 56.2437 100.227 54.8612 97.6841C53.4175 95.0284 52.4791 92.112 52.1944 90.3746L46.8915 91.2434C47.1154 92.6099 47.5884 94.3327 48.2695 96.1416L44.994 97.6892C43.0227 96.3634 41.5126 95.0558 40.7008 94.1639L36.7269 97.7811C37.4615 98.5881 38.4893 99.531 39.7373 100.51L38.4228 102.58H30.9304V107.954H38.3146L39.7239 110.034C38.4819 111.009 37.4589 111.948 36.7269 112.753L40.7008 116.37C41.5126 115.478 43.0226 114.17 44.9937 112.845L48.2694 114.392C47.5883 116.201 47.1154 117.924 46.8915 119.29L52.1944 120.159C52.4791 118.422 53.4175 115.505 54.8612 112.85C56.2437 110.306 57.7611 108.609 59.0904 107.967C60.0925 108.025 60.8929 108.272 61.5954 108.76C62.4306 109.339 63.4036 110.452 64.3195 112.694C66.1281 117.122 67.4022 125.161 67.4938 139.402C65.1884 140.295 62.1765 140.422 59.0229 139.961C55.2687 139.412 51.9397 138.123 50.3793 137.105L47.4434 141.606C49.8182 143.155 53.9397 144.649 58.2457 145.278C58.8097 145.361 59.3878 145.43 59.9757 145.482C57.8805 146.707 55.7153 147.772 53.595 148.677C48.3948 150.897 43.723 152.045 41.3922 152.274L41.9185 157.622C44.3982 157.378 48.34 156.437 52.7225 154.809L38.9001 168.7L42.7093 172.491L56.3485 158.783C54.7205 163.088 53.7507 166.971 53.5124 169.476L58.8619 169.985C59.0851 167.637 60.2874 162.984 62.5622 157.765C63.4551 155.716 64.4954 153.622 65.6779 151.582C65.7144 152.05 65.7612 152.512 65.8167 152.965C66.341 157.247 67.7139 161.356 69.2435 163.782L73.7892 160.916C72.7953 159.34 71.6081 156.049 71.1505 152.312C70.7672 149.181 70.946 146.138 71.8667 143.759C85.8492 143.847 93.7133 145.043 98.0355 146.786C100.22 147.667 101.285 148.605 101.837 149.411C102.31 150.101 102.554 150.908 102.608 151.96C101.951 153.407 100.161 155.138 97.5729 156.731C94.8634 158.398 91.9759 159.49 90.3798 159.761L91.278 165.059C92.6767 164.822 94.4212 164.261 96.2366 163.472L97.7153 166.71C96.3195 168.942 94.9489 170.635 94.0629 171.469L97.7472 175.381C98.6128 174.566 99.641 173.364 100.704 171.893L102.431 173.028L102.355 181.318L107.729 181.367L107.806 172.927L109.399 171.811C110.429 173.31 111.446 174.542 112.337 175.381L116.021 171.469C115.118 170.618 113.731 168.816 112.351 166.413L113.738 163.375C115.563 164.214 117.345 164.811 118.806 165.059L119.704 159.761C118.134 159.494 115.394 158.419 112.823 156.761C110.384 155.188 108.662 153.455 108.004 151.966C108.058 150.909 108.306 150.07 108.797 149.341C109.369 148.493 110.457 147.518 112.647 146.6C116.976 144.787 124.846 143.51 138.81 143.415C139.699 145.786 139.825 148.874 139.373 152.092C138.835 155.922 137.566 159.319 136.559 160.916L141.105 163.782C142.621 161.376 144.081 157.202 144.694 152.84C144.769 152.311 144.832 151.769 144.881 151.219C146.048 153.299 147.066 155.444 147.935 157.546C150.123 162.838 151.259 167.598 151.486 169.985L156.836 169.476C156.597 166.971 155.675 162.983 154.079 158.544L167.617 172.468L171.47 168.723L157.864 154.729C162.112 156.388 165.949 157.378 168.43 157.622L168.956 152.274C166.665 152.049 162.1 150.834 156.97 148.526C154.903 147.596 152.787 146.507 150.732 145.266C151.237 145.227 151.735 145.175 152.223 145.113C156.451 144.574 160.509 143.168 162.905 141.606L159.969 137.105C158.429 138.109 155.205 139.315 151.543 139.782C148.476 140.173 145.508 139.993 143.192 139.067C143.276 124.806 144.452 116.75 146.178 112.306C147.052 110.055 147.983 108.958 148.772 108.395C149.429 107.926 150.189 107.681 151.179 107.623C151.731 107.895 152.368 108.384 153.063 109.153C153.906 110.086 154.713 111.299 155.44 112.66C156.909 115.41 157.868 118.418 158.154 120.159L163.457 119.29C163.229 117.899 162.736 116.109 162.026 114.223L165.257 112.697C167.267 114.088 168.816 115.456 169.647 116.37L173.621 112.753C172.847 111.902 171.735 110.874 170.373 109.799L171.688 107.858L179.384 107.953L179.451 102.58L171.452 102.481L170.311 100.685C171.689 99.6617 172.824 98.657 173.621 97.7811L169.647 94.1639C168.816 95.0771 167.204 96.4181 165.081 97.7539L161.979 96.2886C162.713 94.4473 163.223 92.6718 163.457 91.2434L158.154 90.3746C157.873 92.0866 156.928 94.9027 155.473 97.4701C154.086 99.9172 152.551 101.579 151.185 102.224C150.157 102.169 149.354 101.931 148.66 101.463C147.845 100.914 146.89 99.851 145.988 97.6605C144.202 93.3207 142.944 85.3703 142.854 71.1244C145.188 70.1966 148.229 70.0104 151.383 70.4013C155.146 70.8676 158.444 72.0758 159.969 73.0703L162.905 68.5695C160.494 66.9971 156.342 65.601 152.044 65.0685C151.532 65.005 151.008 64.9526 150.477 64.9137C152.552 63.6774 154.692 62.5916 156.788 61.6622C162.003 59.3487 166.658 58.1268 168.956 57.9007L168.43 52.5529C165.942 52.7978 162.025 53.7969 157.686 55.4739L171.459 41.4632L167.627 37.6961L153.977 51.5816C155.62 47.1795 156.597 43.2123 156.836 40.6994L151.486 40.1906C151.262 42.5463 150.056 47.2942 147.779 52.6044C146.889 54.6824 145.852 56.8038 144.675 58.8642C144.638 58.3673 144.59 57.8772 144.532 57.3966C144.011 53.0407 142.643 48.833 141.105 46.393L136.559 49.2588C137.544 50.8215 138.736 54.1927 139.197 58.0356C139.583 61.2584 139.4 64.3766 138.479 66.7744C124.498 66.6862 116.634 65.4903 112.313 63.7474C110.128 62.8664 109.063 61.9285 108.511 61.1226C108.039 60.4331 107.794 59.6262 107.74 58.5745C108.375 57.185 110.065 55.6165 112.564 54.194C115.172 52.7098 118.024 51.7464 119.704 51.4615L118.806 46.1634C117.443 46.3946 115.731 46.8888 113.938 47.5981L112.441 44.3189C113.786 42.2108 115.122 40.5996 116.021 39.7528L112.337 35.8411ZM105.034 65.3455C103.734 66.7218 101.973 67.8357 99.7409 68.7324C94.5224 70.829 86.0356 72.0056 72.5218 72.1403C72.3895 85.9115 71.2148 94.5398 69.1392 99.8359C68.2468 102.113 67.1373 103.909 65.762 105.232C67.1866 106.55 68.3513 108.354 69.2942 110.662C71.4621 115.97 72.7178 124.61 72.8593 138.393C86.3707 138.528 94.8423 139.704 100.045 141.803C102.248 142.691 103.989 143.792 105.279 145.151C106.57 143.741 108.327 142.584 110.571 141.644C115.801 139.453 124.3 138.194 137.826 138.05C137.956 124.281 139.113 115.655 141.168 110.361C142.045 108.105 143.135 106.318 144.488 104.996C143.089 103.711 141.945 101.954 141.019 99.7063C138.865 94.4736 137.628 85.9077 137.489 72.1403C123.977 72.0056 115.506 70.8292 110.303 68.7311C108.08 67.8346 106.327 66.721 105.034 65.3455Z" fill="#E85F34"></path></svg> 